<?xml version="1.0" standalone="no"?>
<!DOCTYPE svg PUBLIC "-//W3C//DTD SVG 1.1//EN" "http://www.w3.org/Graphics/SVG/1.1/DTD/svg11.dtd" >
<svg xmlns="http://www.w3.org/2000/svg" xmlns:xlink="http://www.w3.org/1999/xlink" version="1.1">
<metadata>
Created by FontForge 20201107 at Wed Dec  9 16:51:38 2015
 By 
8-bit Operator (c) 2009 - 2014 Grand Chaos Productions.
Based on spritesheet by Leafia_Barrett.
Modified by theFIZZYnator.
Undertale is copyright and intellectual property of Toby Fox.
</metadata>
<defs>
<font id="DeterminationMonoWeb" horiz-adv-x="512" >
  <font-face 
    font-family="Determination Mono Web"
    font-weight="400"
    font-stretch="normal"
    units-per-em="1024"
    panose-1="0 0 0 0 0 0 0 0 0 0"
    ascent="832"
    descent="-192"
    x-height="448"
    cap-height="576"
    bbox="0 -192 960 832"
    underline-thickness="64"
    underline-position="-288"
    unicode-range="U+0020-1F494"
  />
<missing-glyph 
d="M64 -128h384v896h-384v-896zM0 -192v1024h512v-1024h-512z" />
    <glyph glyph-name=".notdef" 
d="M64 -128h384v896h-384v-896zM0 -192v1024h512v-1024h-512z" />
    <glyph glyph-name=".null" horiz-adv-x="0" 
 />
    <glyph glyph-name="nonmarkingreturn" horiz-adv-x="341" 
 />
    <glyph glyph-name="space" unicode=" " 
 />
    <glyph glyph-name="exclam" unicode="!" 
d="M320 0h-128v128h128v-128zM320 192h-128v192h-64v192h64v64h128v-64h64v-192h-64v-192z" />
    <glyph glyph-name="quotedbl" unicode="&#x22;" 
d="M64 448v128h128v-192h-64v64h-64zM320 448h-64v128h128v-192h-64v64zM128 384v-64h-64v64h64zM320 384v-64h-64v64h64z" />
    <glyph glyph-name="numbersign" unicode="#" 
d="M448 384v-192h64v-64h-64v-128h-128v128h-64v-128h-128v128h-64v64h64v192h-64v64h64v128h128v-128h64v128h128v-128h64v-64h-64zM320 192v192h-64v-192h64z" />
    <glyph glyph-name="dollar" unicode="$" 
d="M320 0v-128h-128v128h-64v64h-64v128h128v-128h128v192h-192v64h-64v192h64v64h64v128h128v-128h64v-64h64v-128h-128v128h-128v-192h192v-64h64v-192h-64v-64h-64z" />
    <glyph glyph-name="percent" unicode="%" 
d="M448 192h-128v64h128v-64zM448 0h-128v64h128v-64zM256 320h-128v64h128v-64zM256 512h-128v64h128v-64zM320 384h-64v128h64v-128zM320 64h-64v128h64v-128zM128 384h-64v128h64v-128zM512 64h-64v128h64v-128zM448 448v-64h-64v-64h-64v-64h-64v-64h-64v-64h-64v64h64
v64h64v64h64v64h64v64h64zM448 448v64h64v-64h-64zM128 128v-64h-64v64h64z" />
    <glyph glyph-name="ampersand" unicode="&#x26;" 
d="M192 576h192v-64h64v-128h-64v-64h-64v-64h192v-64h-64v-128h64v-64h-128v64h-64v-64h-192v64h-64v192h64v64h64v64h-64v128h64v64zM320 512h-64v-128h64v128zM320 64v128h-64v64h-64v-192h128z" />
    <glyph glyph-name="quotesingle" unicode="'" 
d="M64 448v128h128v-192h-64v64h-64zM128 384v-64h-64v64h64z" />
    <glyph glyph-name="parenleft" unicode="(" 
d="M448 576v-64h-64v-64h-64v-320h64v-64h64v-64h-128v64h-64v64h-64v320h64v64h64v64h128z" />
    <glyph glyph-name="parenright" unicode=")" 
d="M192 576v-64h64v-64h64v-320h-64v-64h-64v-64h-128v64h64v64h64v320h-64v64h-64v64h128z" />
    <glyph glyph-name="asterisk" unicode="*" 
d="M128 320v64h-64v64h128v-64h128v64h128v-64h-64v-64h128v-64h-128v-64h64v-64h-128v64h-128v-64h-128v64h64v64h-128v64h128z" />
    <glyph glyph-name="plus" unicode="+" 
d="M64 256v64h128v128h128v-128h128v-64h-128v-128h-128v128h-128z" />
    <glyph glyph-name="comma" unicode="," 
d="M128 -64v-64h-64v64h64zM128 -64v64h-64v128h128v-192h-64z" />
    <glyph glyph-name="hyphen" unicode="-" 
d="M128 256v64h256v-64h-256z" />
    <glyph glyph-name="period" unicode="." 
d="M192 0h-128v128h128v-128z" />
    <glyph glyph-name="slash" unicode="/" 
d="M64 -64v128h64v128h64v128h64v128h64v128h128v-128h-64v-128h-64v-128h-64v-128h-64v-128h-128z" />
    <glyph glyph-name="zero" unicode="0" 
d="M256 256v-128h-64v-64h128v192h-64zM320 448v64h-128v-192h64v128h64zM384 64v-64h-256v64h-64v448h64v64h256v-64h64v-448h-64z" />
    <glyph glyph-name="one" unicode="1" 
d="M192 448h-128v64h128v64h128v-512h128v-64h-384v64h128v384z" />
    <glyph glyph-name="two" unicode="2" 
d="M128 128v64h64v64h64v64h64v192h-128v-128h-128v128h64v64h256v-64h64v-192h-64v-64h-64v-64h-64v-64h-64v-64h256v-64h-384v128h64z" />
    <glyph glyph-name="three" unicode="3" 
d="M64 64v128h128v-128h128v192h-128v64h128v192h-128v-128h-128v128h64v64h256v-64h64v-192h-64v-64h64v-192h-64v-64h-256v64h-64z" />
    <glyph glyph-name="four" unicode="4" 
d="M320 192v192h-64v-64h-64v-128h128zM448 0h-128v128h-256v192h64v64h64v64h64v64h64v64h128v-576z" />
    <glyph glyph-name="five" unicode="5" 
d="M448 512h-256v-192h192v-64h64v-192h-64v-64h-256v64h-64v128h128v-128h128v192h-256v320h384v-64z" />
    <glyph glyph-name="six" unicode="6" 
d="M128 448v64h128v-64h-128zM192 320h192v-64h64v-192h-64v-64h-256v64h-64v384h128v-128zM192 256v-192h128v192h-128zM192 512v64h256v-64h-256z" />
    <glyph glyph-name="seven" unicode="7" 
d="M320 512h-256v64h384v-192h-64v-128h-64v-256h-128v256h64v128h64v128z" />
    <glyph glyph-name="eight" unicode="8" 
d="M192 320h128v192h-128v-192zM192 256v-192h128v192h-128zM448 320h-64v-64h64v-192h-64v-64h-256v64h-64v192h64v64h-64v192h64v64h256v-64h64v-192z" />
    <glyph glyph-name="nine" unicode="9" 
d="M320 320v192h-128v-192h128zM320 256h-192v64h-64v192h64v64h256v-64h64v-384h-64v-64h-64v-64h-192v64h128v64h64v128z" />
    <glyph glyph-name="colon" unicode=":" 
d="M320 0h-128v128h128v-128zM320 320h-128v128h128v-128z" />
    <glyph glyph-name="semicolon" unicode=";" 
d="M320 320h-128v128h128v-128zM192 0v128h128v-192h-64v64h-64zM256 -64h-64v-64h64v64z" />
    <glyph glyph-name="less" unicode="&#x3c;" 
d="M320 512v64h64v-128h-64v-64h-64v-64h-64v-64h64v-64h64v-64h64v-128h-64v64h-64v64h-64v64h-64v64h-64v64h64v64h64v64h64v64h64z" />
    <glyph glyph-name="equal" unicode="=" 
d="M64 192v64h384v-64h-384zM64 320v64h384v-64h-384z" />
    <glyph glyph-name="greater" unicode="&#x3e;" 
d="M256 512v-64h64v-64h64v-64h64v-64h-64v-64h-64v-64h-64v-64h-64v-64h-64v128h64v64h64v64h64v64h-64v64h-64v64h-64v128h64v-64h64z" />
    <glyph glyph-name="question" unicode="?" 
d="M320 0h-128v128h128v-128zM192 192v64h64v64h64v192h-128v-128h-128v128h64v64h256v-64h64v-192h-64v-64h-64v-64h-128z" />
    <glyph glyph-name="at" unicode="@" 
d="M192 64h256v-64h-320v64h-64v448h64v64h256v-64h64v-320h-192v192h64v128h-128v-448z" />
    <glyph glyph-name="A" unicode="A" 
d="M192 256h128v256h-128v-256zM320 192h-128v-192h-128v512h64v64h256v-64h64v-512h-128v192z" />
    <glyph glyph-name="B" unicode="B" 
d="M384 320v-64h64v-192h-64v-64h-320v576h320v-64h64v-192h-64zM192 320h128v192h-128v-192zM192 256v-192h128v192h-128z" />
    <glyph glyph-name="C" unicode="C" 
d="M320 64v128h128v-128h-64v-64h-256v64h-64v448h64v64h256v-64h64v-128h-128v128h-128v-448h128z" />
    <glyph glyph-name="D" unicode="D" 
d="M192 64h128v448h-128v-448zM384 64v-64h-320v576h320v-64h64v-448h-64z" />
    <glyph glyph-name="E" unicode="E" 
d="M192 64h256v-64h-384v576h384v-64h-256v-192h192v-64h-192v-192z" />
    <glyph glyph-name="F" unicode="F" 
d="M192 320h192v-64h-192v-256h-128v576h384v-64h-256v-192z" />
    <glyph glyph-name="G" unicode="G" 
d="M384 512h64v-128h-128v128h-128v-448h128v192h-64v64h192v-256h-64v-64h-256v64h-64v448h64v64h256v-64z" />
    <glyph glyph-name="H" unicode="H" 
d="M192 256v-256h-128v576h128v-256h128v256h128v-576h-128v256h-128z" />
    <glyph glyph-name="I" unicode="I" 
d="M192 512h-128v64h384v-64h-128v-448h128v-64h-384v64h128v448z" />
    <glyph glyph-name="J" unicode="J" 
d="M320 512h-128v64h256v-512h-64v-64h-256v64h-64v128h128v-128h128v448z" />
    <glyph glyph-name="K" unicode="K" 
d="M192 256v-256h-128v576h128v-256h64v128h64v128h128v-128h-64v-128h-64v-64h64v-128h64v-128h-128v128h-64v128h-64z" />
    <glyph glyph-name="L" unicode="L" 
d="M192 64h256v-64h-384v576h128v-512z" />
    <glyph glyph-name="M" unicode="M" 
d="M64 0v576h64v-64h64v-64h64v-64h64v64h64v64h64v64h64v-576h-128v320h-64v-64h-64v64h-64v-320h-128z" />
    <glyph glyph-name="N" unicode="N" 
d="M192 320v-320h-128v576h128v-128h64v-128h-64zM256 320h64v256h128v-576h-128v192h-64v128z" />
    <glyph glyph-name="O" unicode="O" 
d="M192 64h128v448h-128v-448zM384 64v-64h-256v64h-64v448h64v64h256v-64h64v-448h-64z" />
    <glyph glyph-name="P" unicode="P" 
d="M192 256v-256h-128v576h320v-64h64v-192h-64v-64h-192zM192 320h128v192h-128v-192z" />
    <glyph glyph-name="Q" unicode="Q" 
d="M320 512h-128v-448h128v448zM128 512v64h256v-64h64v-448h-64v-64h-64v-64h128v-64h-192v64h-64v64h-64v64h-64v448h64z" />
    <glyph glyph-name="R" unicode="R" 
d="M192 320h128v192h-128v-192zM192 256v-256h-128v576h320v-64h64v-192h-64v-64h64v-256h-128v256h-128z" />
    <glyph glyph-name="S" unicode="S" 
d="M384 512h64v-128h-128v128h-128v-192h192v-64h64v-192h-64v-64h-256v64h-64v128h128v-128h128v192h-192v64h-64v192h64v64h256v-64z" />
    <glyph glyph-name="T" unicode="T" 
d="M192 512h-128v64h384v-64h-128v-512h-128v512z" />
    <glyph glyph-name="U" unicode="U" 
d="M128 64h-64v512h128v-512h128v512h128v-512h-64v-64h-256v64z" />
    <glyph glyph-name="V" unicode="V" 
d="M128 256h-64v320h128v-320h128v320h128v-320h-64v-128h-64v-128h-128v128h-64v128z" />
    <glyph glyph-name="W" unicode="W" 
d="M320 128h-64v320h64v-320zM320 128h64v448h128v-448h-64v-128h-128v128zM256 0h-128v128h-64v448h128v-448h64v-128z" />
    <glyph glyph-name="X" unicode="X" 
d="M128 448h-64v128h128v-128h128v128h128v-128h-64v-128h-64v-64h64v-128h64v-128h-128v128h-128v-128h-128v128h64v128h64v64h-64v128z" />
    <glyph glyph-name="Y" unicode="Y" 
d="M128 320h-64v256h128v-256h128v256h128v-256h-64v-64h-64v-256h-128v256h-64v64z" />
    <glyph glyph-name="Z" unicode="Z" 
d="M320 512h-256v64h384v-192h-64v-64h-64v-64h-64v-64h-64v-128h256v-64h-384v192h64v64h64v64h64v64h64v128z" />
    <glyph glyph-name="bracketleft" unicode="[" 
d="M320 64h128v-64h-256v576h256v-64h-128v-448z" />
    <glyph glyph-name="backslash" unicode="\" 
d="M256 0v192h-64v192h-64v192h128v-192h64v-192h64v-192h-128z" />
    <glyph glyph-name="bracketright" unicode="]" 
d="M192 512h-128v64h256v-576h-256v64h128v448z" />
    <glyph glyph-name="asciicircum" unicode="^" 
d="M128 512h64v64h128v-64h64v-64h64v-128h-64v64h-64v64h-128v-64h-64v-64h-64v128h64v64z" />
    <glyph glyph-name="underscore" unicode="_" 
d="M64 -128v64h384v-64h-384z" />
    <glyph glyph-name="grave" unicode="`" 
d="M256 512v-64h-128v64h-64v64h128v-64h64z" />
    <glyph glyph-name="a" unicode="a" 
d="M192 64h128v128h-128v-128zM128 384v64h256v-64h64v-384h-320v64h-64v128h64v64h192v128h-128v-64h-128v64h64z" />
    <glyph glyph-name="b" unicode="b" 
d="M384 64v-64h-320v576h128v-128h192v-64h64v-320h-64zM192 64h128v320h-128v-320z" />
    <glyph glyph-name="c" unicode="c" 
d="M320 64v128h128v-128h-64v-64h-256v64h-64v320h64v64h256v-64h64v-128h-128v128h-128v-320h128z" />
    <glyph glyph-name="d" unicode="d" 
d="M192 64h128v320h-128v-320zM448 0h-320v64h-64v320h64v64h192v128h128v-576z" />
    <glyph glyph-name="e" unicode="e" 
d="M192 256h128v128h-128v-128zM384 64v-64h-256v64h-64v320h64v64h256v-64h64v-192h-256v-128h128v64h128v-64h-64z" />
    <glyph glyph-name="f" unicode="f" 
d="M192 384v128h64v64h192v-64h-128v-128h128v-64h-128v-320h-128v320h-128v64h128z" />
    <glyph glyph-name="g" unicode="g" 
d="M384 -128v-64h-256v64h-64v64h128v-64h128v128h-192v64h-64v320h64v64h320v-576h-64zM320 384h-128v-320h128v320z" />
    <glyph glyph-name="h" unicode="h" 
d="M384 384h64v-384h-128v384h-128v-384h-128v576h128v-128h192v-64z" />
    <glyph glyph-name="i" unicode="i" 
d="M192 384h-128v64h256v-384h128v-64h-384v64h128v320zM320 640v-128h-128v128h128z" />
    <glyph glyph-name="j" unicode="j" 
d="M320 384h-128v64h256v-576h-64v-64h-256v64h-64v64h128v-64h128v512zM448 640v-128h-128v128h128z" />
    <glyph glyph-name="k" unicode="k" 
d="M192 192v-192h-128v576h128v-320h64v64h64v128h128v-128h-64v-64h-64v-64h64v-64h64v-128h-128v128h-64v64h-64z" />
    <glyph glyph-name="l" unicode="l" 
d="M192 512h-128v64h256v-512h128v-64h-384v64h128v448z" />
    <glyph glyph-name="m" unicode="m" 
d="M192 320v-320h-128v448h192v-64h64v64h128v-64h64v-384h-128v320h-64v-256h-64v256h-64z" />
    <glyph glyph-name="n" unicode="n" 
d="M192 384v-384h-128v448h320v-64h64v-384h-128v384h-128z" />
    <glyph glyph-name="o" unicode="o" 
d="M192 64h128v320h-128v-320zM384 64v-64h-256v64h-64v320h64v64h256v-64h64v-320h-64z" />
    <glyph glyph-name="p" unicode="p" 
d="M192 0v-192h-128v640h320v-64h64v-320h-64v-64h-192zM192 64h128v320h-128v-320z" />
    <glyph glyph-name="q" unicode="q" 
d="M320 0h-192v64h-64v320h64v64h320v-640h-128v192zM192 64h128v320h-128v-320z" />
    <glyph glyph-name="r" unicode="r" 
d="M192 384v-384h-128v448h320v-64h64v-128h-128v128h-128z" />
    <glyph glyph-name="s" unicode="s" 
d="M384 384h64v-64h-128v64h-128v-128h192v-64h64v-128h-64v-64h-256v64h-64v64h128v-64h128v128h-192v64h-64v128h64v64h256v-64z" />
    <glyph glyph-name="t" unicode="t" 
d="M64 384v64h128v128h128v-128h128v-64h-128v-320h128v-64h-192v64h-64v320h-128z" />
    <glyph glyph-name="u" unicode="u" 
d="M320 64v384h128v-448h-320v64h-64v384h128v-384h128z" />
    <glyph glyph-name="v" unicode="v" 
d="M128 256h-64v192h128v-192h128v192h128v-192h-64v-128h-64v-128h-128v128h-64v128z" />
    <glyph glyph-name="w" unicode="w" 
d="M320 128h-64v256h64v-256zM320 128h64v320h128v-320h-64v-128h-128v128zM256 0h-128v128h-64v320h128v-320h64v-128z" />
    <glyph glyph-name="x" unicode="x" 
d="M128 320h-64v128h128v-128h128v128h128v-128h-64v-64h-64v-64h64v-64h64v-128h-128v128h-128v-128h-128v128h64v64h64v64h-64v64z" />
    <glyph glyph-name="y" unicode="y" 
d="M192 -128h128v128h-192v64h-64v384h128v-384h128v384h128v-576h-64v-64h-256v64h-64v64h128v-64z" />
    <glyph glyph-name="z" unicode="z" 
d="M320 384h-256v64h384v-128h-64v-64h-64v-64h-64v-64h-64v-64h256v-64h-384v128h64v64h64v64h64v64h64v64z" />
    <glyph glyph-name="braceleft" unicode="{" 
d="M320 256v-192h128v-64h-192v64h-64v192h-64v64h64v192h64v64h192v-64h-128v-192h-64v-64h64z" />
    <glyph glyph-name="bar" unicode="|" 
d="M320 576v-576h-128v576h128z" />
    <glyph glyph-name="braceright" unicode="}" 
d="M256 256v64h-64v192h-128v64h192v-64h64v-192h64v-64h-64v-192h-64v-64h-192v64h128v192h64z" />
    <glyph glyph-name="asciitilde" unicode="~" 
d="M192 256v-64h-128v64h64v64h192v-64h64v64h128v-64h-64v-64h-192v64h-64z" />
    <glyph glyph-name="uni00A0" unicode="&#xa0;" 
 />
    <glyph glyph-name="exclamdown" unicode="&#xa1;" 
d="M192 448h128v-128h-128v128zM192 256h128v-192h64v-192h-64v-64h-128v64h-64v192h64v192z" />
    <glyph glyph-name="cent" unicode="&#xa2;" 
d="M320 192v64h128v-64h-64v-64h-64v-128h-128v128h-64v64h-64v192h64v64h64v128h128v-128h64v-64h64v-64h-128v64h-128v-192h128z" />
    <glyph glyph-name="sterling" unicode="&#xa3;" 
d="M384 64v128h128v-128h-64v-64h-384v64h64v192h-64v64h64v192h64v64h256v-64h64v-128h-128v128h-128v-192h128v-64h-128v-192h128z" />
    <glyph glyph-name="yen" unicode="&#xa5;" 
d="M320 64v-64h-128v64h-128v64h128v64h-128v64h64v64h-64v256h128v-256h128v256h128v-256h-64v-64h64v-64h-128v-64h128v-64h-128z" />
    <glyph glyph-name="brokenbar" unicode="&#xa6;" 
d="M320 0h-128v256h128v-256zM320 320h-128v256h128v-256z" />
    <glyph glyph-name="section" unicode="&#xa7;" 
d="M384 512h64v-64h-128v64h-128v-128h192v-64h64v-256h-64v-64h64v-128h-64v-64h-256v64h-64v64h128v-64h128v128h-192v64h-64v256h64v64h-64v128h64v64h256v-64zM320 64v256h-128v-256h128z" />
    <glyph glyph-name="dieresis" unicode="&#xa8;" 
d="M192 448h-128v128h128v-128zM448 448h-128v128h128v-128z" />
    <glyph glyph-name="copyright" unicode="&#xa9;" 
d="M384 192h-64v64h64v-64zM384 320h-64v64h64v-64zM192 384v-192h-64v192h64zM192 384v64h128v-64h-128zM192 192h128v-64h-128v64zM384 64v64h64v-64h-64zM448 128v320h64v-320h-64zM448 448h-64v64h64v-64zM128 64h-64v64h64v-64zM384 64v-64h-256v64h256zM64 128h-64
v320h64v-320zM64 448v64h64v-64h-64zM384 576v-64h-256v64h256z" />
    <glyph glyph-name="ordfeminine" unicode="&#xaa;" 
d="M192 192h128v128h-128v-128zM128 512v64h256v-64h64v-384h-320v64h-64v128h64v64h192v128h-128v-64h-128v64h64z" />
    <glyph glyph-name="guillemotleft" unicode="&#xab;" 
d="M128 128v64h-64v64h-64v64h64v64h64v64h128v-64h-64v-64h-64v-64h64v-64h64v-64h-128zM384 128v64h-64v64h-64v64h64v64h64v64h128v-64h-64v-64h-64v-64h64v-64h64v-64h-128z" />
    <glyph glyph-name="logicalnot" unicode="&#xac;" 
d="M64 256v64h384v-192h-128v128h-256z" />
    <glyph glyph-name="uni00AD" unicode="&#xad;" 
d="M128 256v64h256v-64h-256z" />
    <glyph glyph-name="registered" unicode="&#xae;" 
d="M384 576v-64h-256v64h256zM64 448v64h64v-64h-64zM64 128h-64v320h64v-320zM384 64v-64h-256v64h256zM128 64h-64v64h64v-64zM448 448h-64v64h64v-64zM448 128v320h64v-320h-64zM384 64v64h64v-64h-64zM192 320h128v-64h-128v-128h-64v320h192v-64h-128v-64zM384 320h-64
v64h64v-64zM384 128h-64v128h64v-128z" />
    <glyph glyph-name="degree" unicode="&#xb0;" 
d="M256 512h64v-128h-64v128zM128 512v64h128v-64h-128zM128 384h-64v128h64v-128zM256 384v-64h-128v64h128z" />
    <glyph glyph-name="plusminus" unicode="&#xb1;" 
d="M64 256v64h128v128h128v-128h128v-64h-128v-128h-128v128h-128zM64 0v64h384v-64h-384z" />
    <glyph glyph-name="acute" unicode="&#xb4;" 
d="M128 512v64h128v-64h-64v-64h-128v64h64z" />
    <glyph glyph-name="mu" unicode="&#xb5;" 
d="M320 448h128v-384h-64v-64h-192v-192h-128v640h128v-384h128v384z" />
    <glyph glyph-name="paragraph" unicode="&#xb6;" 
d="M320 0h-128v256h-64v64h-64v192h64v64h384v-576h-128v512h-64v-512z" />
    <glyph glyph-name="periodcentered" unicode="&#xb7;" 
d="M320 192h-128v128h128v-128z" />
    <glyph glyph-name="cedilla" unicode="&#xb8;" 
d="M320 -64h64v-64h-64v-64h-256v64h192v64h-64v64h128v-64z" />
    <glyph glyph-name="ordmasculine" unicode="&#xba;" 
d="M192 192h128v320h-128v-320zM384 192v-64h-256v64h-64v320h64v64h256v-64h64v-320h-64z" />
    <glyph glyph-name="guillemotright" unicode="&#xbb;" 
d="M0 128v64h64v64h64v64h-64v64h-64v64h128v-64h64v-64h64v-64h-64v-64h-64v-64h-128zM256 128v64h64v64h64v64h-64v64h-64v64h128v-64h64v-64h64v-64h-64v-64h-64v-64h-128z" />
    <glyph glyph-name="questiondown" unicode="&#xbf;" 
d="M192 384h128v-128h-128v128zM320 192v-64h-64v-64h-64v-192h128v128h128v-128h-64v-64h-256v64h-64v192h64v64h64v64h128z" />
    <glyph glyph-name="Agrave" unicode="&#xc0;" 
d="M192 256h128v256h-128v-256zM320 192h-128v-192h-128v512h64v64h256v-64h64v-512h-128v192zM320 704v-64h-128v64h-64v64h128v-64h64z" />
    <glyph glyph-name="Aacute" unicode="&#xc1;" 
d="M320 512h-128v-256h128v256zM192 0h-128v512h64v64h256v-64h64v-512h-128v192h-128v-192zM256 704v64h128v-64h-64v-64h-128v64h64z" />
    <glyph glyph-name="Acircumflex" unicode="&#xc2;" 
d="M192 256h128v256h-128v-256zM320 192h-128v-192h-128v512h64v64h256v-64h64v-512h-128v192zM128 768h64v64h128v-64h64v-64h64v-64h-128v64h-128v-64h-128v64h64v64z" />
    <glyph glyph-name="Atilde" unicode="&#xc3;" 
d="M192 256h128v256h-128v-256zM320 192h-128v-192h-128v512h64v64h256v-64h64v-512h-128v192zM192 704v-64h-128v64h64v64h192v-64h64v64h128v-64h-64v-64h-192v64h-64z" />
    <glyph glyph-name="Adieresis" unicode="&#xc4;" 
d="M192 256h128v256h-128v-256zM384 576v-64h64v-512h-128v192h-128v-192h-128v512h64v64h256zM320 640v128h128v-128h-128zM192 768v-128h-128v128h128z" />
    <glyph glyph-name="Aring" unicode="&#xc5;" 
d="M192 256h128v256h-128v-256zM320 192h-128v-192h-128v512h64v64h256v-64h64v-512h-128v192zM192 704h128v64h-128v-64zM384 704v-64h-256v64h-64v64h64v64h256v-64h64v-64h-64z" />
    <glyph glyph-name="AE" unicode="&#xc6;" 
d="M256 256v256h-64v-256h64zM384 320h128v-64h-128v-192h128v-64h-256v192h-64v-192h-128v512h64v64h384v-64h-128v-192z" />
    <glyph glyph-name="Ccedilla" unicode="&#xc7;" 
d="M192 0h-64v64h-64v448h64v64h256v-64h64v-128h-128v128h-128v-448h128v128h128v-128h-64v-64h-64v-64h64v-64h-64v-64h-256v64h192v64h-64v64z" />
    <glyph glyph-name="Egrave" unicode="&#xc8;" 
d="M192 64h256v-64h-384v576h384v-64h-256v-192h192v-64h-192v-192zM320 704v-64h-128v64h-64v64h128v-64h64z" />
    <glyph glyph-name="Eacute" unicode="&#xc9;" 
d="M192 64h256v-64h-384v576h384v-64h-256v-192h192v-64h-192v-192zM256 704v64h128v-64h-64v-64h-128v64h64z" />
    <glyph glyph-name="Ecircumflex" unicode="&#xca;" 
d="M192 64h256v-64h-384v576h384v-64h-256v-192h192v-64h-192v-192zM128 768h64v64h128v-64h64v-64h64v-64h-128v64h-128v-64h-128v64h64v64z" />
    <glyph glyph-name="Edieresis" unicode="&#xcb;" 
d="M192 64h256v-64h-384v576h384v-64h-256v-192h192v-64h-192v-192zM192 640h-128v128h128v-128zM448 640h-128v128h128v-128z" />
    <glyph glyph-name="Igrave" unicode="&#xcc;" 
d="M192 512h-128v64h384v-64h-128v-448h128v-64h-384v64h128v448zM320 704v-64h-128v64h-64v64h128v-64h64z" />
    <glyph glyph-name="Iacute" unicode="&#xcd;" 
d="M192 512h-128v64h384v-64h-128v-448h128v-64h-384v64h128v448zM256 704v64h128v-64h-64v-64h-128v64h64z" />
    <glyph glyph-name="Icircumflex" unicode="&#xce;" 
d="M192 512h-128v64h384v-64h-128v-448h128v-64h-384v64h128v448zM128 768h64v64h128v-64h64v-64h64v-64h-128v64h-128v-64h-128v64h64v64z" />
    <glyph glyph-name="Idieresis" unicode="&#xcf;" 
d="M192 512h-128v64h384v-64h-128v-448h128v-64h-384v64h128v448zM192 640h-128v128h128v-128zM448 640h-128v128h128v-128z" />
    <glyph glyph-name="Eth" unicode="&#xd0;" 
d="M64 320v256h320v-64h64v-448h-64v-64h-320v256h-64v64h64zM192 320h64v-64h-64v-192h128v448h-128v-192z" />
    <glyph glyph-name="Ntilde" unicode="&#xd1;" 
d="M192 320v-320h-128v576h128v-128h64v-128h64v256h128v-576h-128v192h-64v128h-64zM192 704v-64h-128v64h64v64h192v-64h64v64h128v-64h-64v-64h-192v64h-64z" />
    <glyph glyph-name="Ograve" unicode="&#xd2;" 
d="M192 64h128v448h-128v-448zM384 64v-64h-256v64h-64v448h64v64h256v-64h64v-448h-64zM320 704v-64h-128v64h-64v64h128v-64h64z" />
    <glyph glyph-name="Oacute" unicode="&#xd3;" 
d="M192 64h128v448h-128v-448zM384 64v-64h-256v64h-64v448h64v64h256v-64h64v-448h-64zM256 704v64h128v-64h-64v-64h-128v64h64z" />
    <glyph glyph-name="Ocircumflex" unicode="&#xd4;" 
d="M192 64h128v448h-128v-448zM384 64v-64h-256v64h-64v448h64v64h256v-64h64v-448h-64zM128 768h64v64h128v-64h64v-64h64v-64h-128v64h-128v-64h-128v64h64v64z" />
    <glyph glyph-name="Otilde" unicode="&#xd5;" 
d="M192 64h128v448h-128v-448zM384 64v-64h-256v64h-64v448h64v64h256v-64h64v-448h-64zM192 704v-64h-128v64h64v64h192v-64h64v64h128v-64h-64v-64h-192v64h-64z" />
    <glyph glyph-name="Odieresis" unicode="&#xd6;" 
d="M192 64h128v448h-128v-448zM384 64v-64h-256v64h-64v448h64v64h256v-64h64v-448h-64zM320 640v128h128v-128h-128zM192 768v-128h-128v128h128z" />
    <glyph glyph-name="multiply" unicode="&#xd7;" 
d="M128 320h-64v64h128v-64h128v64h128v-64h-64v-64h-64v-64h64v-64h64v-64h-128v64h-128v-64h-128v64h64v64h64v64h-64v64z" />
    <glyph glyph-name="Oslash" unicode="&#xd8;" 
d="M256 256v-64h-64v-128h128v192h-64zM320 384v128h-128v-192h64v64h64zM64 64v-64h-64v128h64v384h64v64h256v-64h64v64h64v-128h-64v-384h-64v-64h-256v64h-64z" />
    <glyph glyph-name="Ugrave" unicode="&#xd9;" 
d="M128 64h-64v512h128v-512h128v512h128v-512h-64v-64h-256v64zM320 704v-64h-128v64h-64v64h128v-64h64z" />
    <glyph glyph-name="Uacute" unicode="&#xda;" 
d="M384 0h-256v64h-64v512h128v-512h128v512h128v-512h-64v-64zM256 704v64h128v-64h-64v-64h-128v64h64z" />
    <glyph glyph-name="Ucircumflex" unicode="&#xdb;" 
d="M128 64h-64v512h128v-512h128v512h128v-512h-64v-64h-256v64zM128 768h64v64h128v-64h64v-64h64v-64h-128v64h-128v-64h-128v64h64v64z" />
    <glyph glyph-name="Udieresis" unicode="&#xdc;" 
d="M128 64h-64v512h128v-512h128v512h128v-512h-64v-64h-256v64zM320 640v128h128v-128h-128zM192 768v-128h-128v128h128z" />
    <glyph glyph-name="Yacute" unicode="&#xdd;" 
d="M128 320h-64v256h128v-256h128v256h128v-256h-64v-64h-64v-256h-128v256h-64v64zM256 704v64h128v-64h-64v-64h-128v64h64z" />
    <glyph glyph-name="Thorn" unicode="&#xde;" 
d="M192 192h128v192h-128v-192zM192 128v-128h-128v576h128v-128h192v-64h64v-192h-64v-64h-192z" />
    <glyph glyph-name="germandbls" unicode="&#xdf;" 
d="M128 576h256v-64h64v-192h-64v-64h64v-192h-64v-64h-128v64h64v192h-64v64h64v192h-128v-512h-128v512h64v64z" />
    <glyph glyph-name="agrave" unicode="&#xe0;" 
d="M192 64h128v128h-128v-128zM128 384v64h256v-64h64v-384h-320v64h-64v128h64v64h192v128h-128v-64h-128v64h64zM320 576v-64h-128v64h-64v64h128v-64h64z" />
    <glyph glyph-name="aacute" unicode="&#xe1;" 
d="M192 64h128v128h-128v-128zM128 384v64h256v-64h64v-384h-320v64h-64v128h64v64h192v128h-128v-64h-128v64h64zM256 576v64h128v-64h-64v-64h-128v64h64z" />
    <glyph glyph-name="acircumflex" unicode="&#xe2;" 
d="M192 64h128v128h-128v-128zM128 384v64h256v-64h64v-384h-320v64h-64v128h64v64h192v128h-128v-64h-128v64h64zM128 640h64v64h128v-64h64v-64h64v-64h-128v64h-128v-64h-128v64h64v64z" />
    <glyph glyph-name="atilde" unicode="&#xe3;" 
d="M192 64h128v128h-128v-128zM128 384v64h256v-64h64v-384h-320v64h-64v128h64v64h192v128h-128v-64h-128v64h64zM192 576v-64h-128v64h64v64h192v-64h64v64h128v-64h-64v-64h-192v64h-64z" />
    <glyph glyph-name="adieresis" unicode="&#xe4;" 
d="M192 64h128v128h-128v-128zM128 384v64h256v-64h64v-384h-320v64h-64v128h64v64h192v128h-128v-64h-128v64h64zM320 512v128h128v-128h-128zM192 640v-128h-128v128h128z" />
    <glyph glyph-name="aring" unicode="&#xe5;" 
d="M192 64h128v128h-128v-128zM128 384v64h256v-64h64v-384h-320v64h-64v128h64v64h192v128h-128v-64h-128v64h64zM192 576h128v64h-128v-64zM384 576v-64h-256v64h-64v64h64v64h256v-64h64v-64h-64z" />
    <glyph glyph-name="ae" unicode="&#xe6;" 
d="M320 384v-128h64v128h-64zM192 64v128h-64v-128h64zM320 384v64h128v-64h64v-192h-192v-128h64v64h128v-64h-64v-64h-192v64h-64v-64h-128v64h-64v128h64v64h128v128h-64v-64h-128v64h64v64h192v-64h64z" />
    <glyph glyph-name="ccedilla" unicode="&#xe7;" 
d="M192 0h-64v64h-64v320h64v64h256v-64h64v-128h-128v128h-128v-320h128v128h128v-128h-64v-64h-64v-64h64v-64h-64v-64h-256v64h192v64h-64v64z" />
    <glyph glyph-name="egrave" unicode="&#xe8;" 
d="M320 576v-64h-128v64h-64v64h128v-64h64zM192 256h128v128h-128v-128zM384 64v-64h-256v64h-64v320h64v64h256v-64h64v-192h-256v-128h128v64h128v-64h-64z" />
    <glyph glyph-name="eacute" unicode="&#xe9;" 
d="M256 576v64h128v-64h-64v-64h-128v64h64zM192 256h128v128h-128v-128zM384 64v-64h-256v64h-64v320h64v64h256v-64h64v-192h-256v-128h128v64h128v-64h-64z" />
    <glyph glyph-name="ecircumflex" unicode="&#xea;" 
d="M128 640h64v64h128v-64h64v-64h64v-64h-128v64h-128v-64h-128v64h64v64zM192 256h128v128h-128v-128zM384 64v-64h-256v64h-64v320h64v64h256v-64h64v-192h-256v-128h128v64h128v-64h-64z" />
    <glyph glyph-name="edieresis" unicode="&#xeb;" 
d="M192 486h-128v128h128v-128zM448 486h-128v128h128v-128zM192 256h128v128h-128v-128zM384 64v-64h-256v64h-64v320h64v64h256v-64h64v-192h-256v-128h128v64h128v-64h-64z" />
    <glyph glyph-name="igrave" unicode="&#xec;" 
d="M192 384h-128v64h256v-384h128v-64h-384v64h128v320zM320 576v-64h-128v64h-64v64h128v-64h64z" />
    <glyph glyph-name="iacute" unicode="&#xed;" 
d="M192 384h-128v64h256v-384h128v-64h-384v64h128v320zM256 576v64h128v-64h-64v-64h-128v64h64z" />
    <glyph glyph-name="icircumflex" unicode="&#xee;" 
d="M192 384h-128v64h256v-384h128v-64h-384v64h128v320zM128 640h64v64h128v-64h64v-64h64v-64h-128v64h-128v-64h-128v64h64v64z" />
    <glyph glyph-name="idieresis" unicode="&#xef;" 
d="M192 384h-128v64h256v-384h128v-64h-384v64h128v320zM192 512h-128v128h128v-128zM448 512h-128v128h128v-128z" />
    <glyph glyph-name="eth" unicode="&#xf0;" 
d="M192 64h128v256h-128v-256zM448 448v-384h-64v-64h-256v64h-64v256h64v64h192v64h-128v64h64v64h128v-64h128v-64h-64z" />
    <glyph glyph-name="ntilde" unicode="&#xf1;" 
d="M192 576v-64h-128v64h64v64h192v-64h64v64h128v-64h-64v-64h-192v64h-64zM192 384v-384h-128v448h320v-64h64v-384h-128v384h-128z" />
    <glyph glyph-name="ograve" unicode="&#xf2;" 
d="M320 576v-64h-128v64h-64v64h128v-64h64zM192 64h128v320h-128v-320zM384 64v-64h-256v64h-64v320h64v64h256v-64h64v-320h-64z" />
    <glyph glyph-name="oacute" unicode="&#xf3;" 
d="M256 576v64h128v-64h-64v-64h-128v64h64zM192 64h128v320h-128v-320zM384 64v-64h-256v64h-64v320h64v64h256v-64h64v-320h-64z" />
    <glyph glyph-name="ocircumflex" unicode="&#xf4;" 
d="M128 640h64v64h128v-64h64v-64h64v-64h-128v64h-128v-64h-128v64h64v64zM192 64h128v320h-128v-320zM384 64v-64h-256v64h-64v320h64v64h256v-64h64v-320h-64z" />
    <glyph glyph-name="otilde" unicode="&#xf5;" 
d="M192 576v-64h-128v64h64v64h192v-64h64v64h128v-64h-64v-64h-192v64h-64zM192 64h128v320h-128v-320zM384 64v-64h-256v64h-64v320h64v64h256v-64h64v-320h-64z" />
    <glyph glyph-name="odieresis" unicode="&#xf6;" 
d="M320 512v128h128v-128h-128zM192 640v-128h-128v128h128zM192 64h128v320h-128v-320zM384 64v-64h-256v64h-64v320h64v64h256v-64h64v-320h-64z" />
    <glyph glyph-name="divide" unicode="&#xf7;" 
d="M320 64h-128v128h128v-128zM320 384h-128v128h128v-128zM448 256h-384v64h384v-64z" />
    <glyph glyph-name="oslash" unicode="&#xf8;" 
d="M256 192v-64h-64v-64h128v128h-64zM320 320v64h-128v-128h64v64h64zM64 64v-64h-64v128h64v256h64v64h256v-64h64v64h64v-128h-64v-256h-64v-64h-256v64h-64z" />
    <glyph glyph-name="ugrave" unicode="&#xf9;" 
d="M128 64h-64v384h128v-384h128v384h128v-448h-320v64zM320 576v-64h-128v64h-64v64h128v-64h64z" />
    <glyph glyph-name="uacute" unicode="&#xfa;" 
d="M448 0h-320v64h-64v384h128v-384h128v384h128v-448zM256 576v64h128v-64h-64v-64h-128v64h64z" />
    <glyph glyph-name="ucircumflex" unicode="&#xfb;" 
d="M128 64h-64v384h128v-384h128v384h128v-448h-320v64zM128 640h64v64h128v-64h64v-64h64v-64h-128v64h-128v-64h-128v64h64v64z" />
    <glyph glyph-name="udieresis" unicode="&#xfc;" 
d="M128 64h-64v384h128v-384h128v384h128v-448h-320v64zM320 512v128h128v-128h-128zM192 640v-128h-128v128h128z" />
    <glyph glyph-name="yacute" unicode="&#xfd;" 
d="M192 -128h128v128h-192v64h-64v384h128v-384h128v384h128v-576h-64v-64h-256v64h-64v64h128v-64zM256 576v64h128v-64h-64v-64h-128v64h64z" />
    <glyph glyph-name="thorn" unicode="&#xfe;" 
d="M192 64h128v320h-128v-320zM192 448h192v-64h64v-320h-64v-64h-192v-128h-128v704h128v-128z" />
    <glyph glyph-name="ydieresis" unicode="&#xff;" 
d="M192 -128h128v128h-192v64h-64v384h128v-384h128v384h128v-576h-64v-64h-256v64h-64v64h128v-64zM320 512v128h128v-128h-128zM192 640v-128h-128v128h128z" />
    <glyph glyph-name="Ccaron" unicode="&#x10c;" 
d="M320 64v128h128v-128h-64v-64h-256v64h-64v448h64v64h256v-64h64v-128h-128v128h-128v-448h128zM128 768h-64v64h128v-64h128v64h128v-64h-64v-64h-64v-64h-128v64h-64v64z" />
    <glyph glyph-name="ccaron" unicode="&#x10d;" 
d="M320 64v128h128v-128h-64v-64h-256v64h-64v320h64v64h256v-64h64v-128h-128v128h-128v-320h128zM128 640h-64v64h128v-64h128v64h128v-64h-64v-64h-64v-64h-128v64h-64v64z" />
    <glyph glyph-name="Dcaron" unicode="&#x10e;" 
d="M192 64h128v448h-128v-448zM384 64v-64h-320v576h320v-64h64v-448h-64zM128 768h-64v64h128v-64h128v64h128v-64h-64v-64h-64v-64h-128v64h-64v64z" />
    <glyph glyph-name="dcaron" unicode="&#x10f;" 
d="M192 64h64v320h-64v-320zM384 0h-256v64h-64v320h64v64h128v128h128v-576zM448 384v192h64v-192h-64z" />
    <glyph glyph-name="Ecaron" unicode="&#x11a;" 
d="M192 64h256v-64h-384v576h384v-64h-256v-192h192v-64h-192v-192zM128 768h-64v64h128v-64h128v64h128v-64h-64v-64h-64v-64h-128v64h-64v64z" />
    <glyph glyph-name="ecaron" unicode="&#x11b;" 
d="M128 640h-64v64h128v-64h128v64h128v-64h-64v-64h-64v-64h-128v64h-64v64zM192 256h128v128h-128v-128zM384 64v-64h-256v64h-64v320h64v64h256v-64h64v-192h-256v-128h128v64h128v-64h-64z" />
    <glyph glyph-name="dotlessi" unicode="&#x131;" 
d="M192 384h-128v64h256v-384h128v-64h-384v64h128v320z" />
    <glyph glyph-name="Ncaron" unicode="&#x147;" 
d="M192 320v-320h-128v576h128v-128h64v-128h64v256h128v-576h-128v192h-64v128h-64zM128 768h-64v64h128v-64h128v64h128v-64h-64v-64h-64v-64h-128v64h-64v64z" />
    <glyph glyph-name="ncaron" unicode="&#x148;" 
d="M192 384v-384h-128v448h320v-64h64v-384h-128v384h-128zM128 640h-64v64h128v-64h128v64h128v-64h-64v-64h-64v-64h-128v64h-64v64z" />
    <glyph glyph-name="OE" unicode="&#x152;" 
d="M256 64v448h-64v-448h64zM384 320h128v-64h-128v-192h128v-64h-384v64h-64v448h64v64h384v-64h-128v-192z" />
    <glyph glyph-name="oe" unicode="&#x153;" 
d="M320 384v-128h64v128h-64zM192 64v320h-64v-320h64zM320 384v64h128v-64h64v-192h-192v-128h64v64h128v-64h-64v-64h-192v64h-64v-64h-128v64h-64v320h64v64h192v-64h64z" />
    <glyph glyph-name="Rcaron" unicode="&#x158;" 
d="M192 320h128v192h-128v-192zM192 256v-256h-128v576h320v-64h64v-192h-64v-64h64v-256h-128v256h-128zM128 768h-64v64h128v-64h128v64h128v-64h-64v-64h-64v-64h-128v64h-64v64z" />
    <glyph glyph-name="rcaron" unicode="&#x159;" 
d="M192 384v-384h-128v448h320v-64h64v-128h-128v128h-128zM128 640h-64v64h128v-64h128v64h128v-64h-64v-64h-64v-64h-128v64h-64v64z" />
    <glyph glyph-name="Scaron" unicode="&#x160;" 
d="M384 512h64v-128h-128v128h-128v-192h192v-64h64v-192h-64v-64h-256v64h-64v128h128v-128h128v192h-192v64h-64v192h64v64h256v-64zM128 768h-64v64h128v-64h128v64h128v-64h-64v-64h-64v-64h-128v64h-64v64z" />
    <glyph glyph-name="scaron" unicode="&#x161;" 
d="M384 384h64v-64h-128v64h-128v-128h192v-64h64v-128h-64v-64h-256v64h-64v64h128v-64h128v128h-192v64h-64v128h64v64h256v-64zM128 640h-64v64h128v-64h128v64h128v-64h-64v-64h-64v-64h-128v64h-64v64z" />
    <glyph glyph-name="Tcaron" unicode="&#x164;" 
d="M192 512h-128v64h384v-64h-128v-512h-128v512zM128 768h-64v64h128v-64h128v64h128v-64h-64v-64h-64v-64h-128v64h-64v64z" />
    <glyph glyph-name="tcaron" unicode="&#x165;" 
d="M64 384v64h64v128h128v-128h128v-64h-128v-320h128v-64h-192v64h-64v320h-64zM448 384v192h64v-192h-64z" />
    <glyph glyph-name="Uring" unicode="&#x16e;" 
d="M128 64h-64v512h128v-512h128v512h128v-512h-64v-64h-256v64zM192 704h128v64h-128v-64zM384 704v-64h-256v64h-64v64h64v64h256v-64h64v-64h-64z" />
    <glyph glyph-name="uring" unicode="&#x16f;" 
d="M320 64v384h128v-448h-320v64h-64v384h128v-384h128zM192 576h128v64h-128v-64zM384 576v-64h-256v64h-64v64h64v64h256v-64h64v-64h-64z" />
    <glyph glyph-name="Ydieresis" unicode="&#x178;" 
d="M128 320h-64v256h128v-256h128v256h128v-256h-64v-64h-64v-256h-128v256h-64v64zM320 640v128h128v-128h-128zM192 768v-128h-128v128h128z" />
    <glyph glyph-name="Zcaron" unicode="&#x17d;" 
d="M320 512h-256v64h384v-192h-64v-64h-64v-64h-64v-64h-64v-128h256v-64h-384v192h64v64h64v64h64v64h64v128zM128 768h-64v64h128v-64h128v64h128v-64h-64v-64h-64v-64h-128v64h-64v64z" />
    <glyph glyph-name="zcaron" unicode="&#x17e;" 
d="M320 384h-256v64h384v-128h-64v-64h-64v-64h-64v-64h-64v-64h256v-64h-384v128h64v64h64v64h64v64h64v64zM128 640h-64v64h128v-64h128v64h128v-64h-64v-64h-64v-64h-128v64h-64v64z" />
    <glyph glyph-name="florin" unicode="&#x192;" 
d="M192 384v128h64v64h192v-64h-128v-128h128v-64h-128v-384h-64v-64h-192v64h128v384h-128v64h128z" />
    <glyph glyph-name="circumflex" unicode="&#x2c6;" 
d="M128 512h64v64h128v-64h64v-64h64v-64h-128v64h-128v-64h-128v64h64v64z" />
    <glyph glyph-name="caron" unicode="&#x2c7;" 
d="M128 512h-64v64h128v-64h128v64h128v-64h-64v-64h-64v-64h-128v64h-64v64z" />
    <glyph glyph-name="breve" unicode="&#x2d8;" 
d="M128 512h-64v64h128v-64h128v64h128v-64h-64v-64h-256v64z" />
    <glyph glyph-name="dotaccent" unicode="&#x2d9;" 
d="M192 448h-128v128h128v-128z" />
    <glyph glyph-name="ring" unicode="&#x2da;" 
d="M192 448h128v64h-128v-64zM384 448v-64h-256v64h-64v64h64v64h256v-64h64v-64h-64z" />
    <glyph glyph-name="ogonek" unicode="&#x2db;" 
d="M128 0h128v-64h-64v-64h192v-64h-256v64h-64v64h64v64z" />
    <glyph glyph-name="tilde" unicode="&#x2dc;" 
d="M192 512v-64h-128v64h64v64h192v-64h64v64h128v-64h-64v-64h-192v64h-64z" />
    <glyph glyph-name="hungarumlaut" unicode="&#x2dd;" 
d="M128 512v64h128v-64h-64v-64h-128v64h64zM384 512v64h128v-64h-64v-64h-128v64h64z" />
    <glyph glyph-name="uni2000" unicode="&#x2000;" 
 />
    <glyph glyph-name="uni2001" unicode="&#x2001;" horiz-adv-x="768" 
 />
    <glyph glyph-name="uni2002" unicode="&#x2002;" 
 />
    <glyph glyph-name="uni2003" unicode="&#x2003;" horiz-adv-x="768" 
 />
    <glyph glyph-name="uni2004" unicode="&#x2004;" horiz-adv-x="384" 
 />
    <glyph glyph-name="uni2005" unicode="&#x2005;" horiz-adv-x="256" 
 />
    <glyph glyph-name="uni2006" unicode="&#x2006;" horiz-adv-x="128" 
 />
    <glyph glyph-name="uni2007" unicode="&#x2007;" 
 />
    <glyph glyph-name="uni2008" unicode="&#x2008;" horiz-adv-x="256" 
 />
    <glyph glyph-name="uni2009" unicode="&#x2009;" horiz-adv-x="128" 
 />
    <glyph glyph-name="uni200A" unicode="&#x200a;" horiz-adv-x="0" 
 />
    <glyph glyph-name="uni200B" unicode="&#x200b;" horiz-adv-x="0" 
 />
    <glyph glyph-name="uni200C" unicode="&#x200c;" horiz-adv-x="0" 
 />
    <glyph glyph-name="uni200D" unicode="&#x200d;" horiz-adv-x="0" 
 />
    <glyph glyph-name="uni200E" unicode="&#x200e;" horiz-adv-x="0" 
 />
    <glyph glyph-name="uni200F" unicode="&#x200f;" horiz-adv-x="0" 
 />
    <glyph glyph-name="endash" unicode="&#x2013;" 
d="M64 256v64h256v-64h-256z" />
    <glyph glyph-name="emdash" unicode="&#x2014;" 
d="M0 256v64h512v-64h-512z" />
    <glyph glyph-name="quoteleft" unicode="&#x2018;" 
d="M192 448v-128h-128v192h64v-64h64zM128 512v64h64v-64h-64z" />
    <glyph glyph-name="quoteright" unicode="&#x2019;" 
d="M64 448v128h128v-192h-64v64h-64zM128 384v-64h-64v64h64z" />
    <glyph glyph-name="quotesinglbase" unicode="&#x201a;" 
d="M64 0v128h128v-192h-64v64h-64zM128 -64v-64h-64v64h64z" />
    <glyph glyph-name="quotereversed" unicode="&#x201b;" 
d="M192 448h-64v-64h-64v192h128v-128zM128 384h64v-64h-64v64z" />
    <glyph glyph-name="quotedblleft" unicode="&#x201c;" 
d="M384 448v-128h-128v192h64v-64h64zM128 448h64v-128h-128v192h64v-64zM320 512v64h64v-64h-64zM128 512v64h64v-64h-64z" />
    <glyph glyph-name="quotedblright" unicode="&#x201d;" 
d="M64 448v128h128v-192h-64v64h-64zM320 448h-64v128h128v-192h-64v64zM128 384v-64h-64v64h64zM320 384v-64h-64v64h64z" />
    <glyph glyph-name="quotedblbase" unicode="&#x201e;" 
d="M64 0v128h128v-192h-64v64h-64zM320 0h-64v128h128v-192h-64v64zM128 -64v-64h-64v64h64zM320 -64v-64h-64v64h64z" />
    <glyph glyph-name="uni201F" unicode="&#x201f;" 
d="M384 448h-64v-64h-64v192h128v-128zM128 448v-64h-64v192h128v-128h-64zM320 384h64v-64h-64v64zM128 384h64v-64h-64v64z" />
    <glyph glyph-name="dagger" unicode="&#x2020;" 
d="M320 0h-128v384h-128v64h128v128h128v-128h128v-64h-128v-384z" />
    <glyph glyph-name="daggerdbl" unicode="&#x2021;" 
d="M320 192h128v-64h-128v-128h-128v128h-128v64h128v192h-128v64h128v128h128v-128h128v-64h-128v-192z" />
    <glyph glyph-name="bullet" unicode="&#x2022;" 
d="M320 320h64v-128h-64v-64h-128v64h-64v128h64v64h128v-64z" />
    <glyph glyph-name="ellipsis" unicode="&#x2026;" 
d="M128 0h-128v128h128v-128zM320 0h-128v128h128v-128zM512 0h-128v128h128v-128z" />
    <glyph glyph-name="perthousand" unicode="&#x2030;" horiz-adv-x="1024" 
d="M896 192h-128v64h128v-64zM896 0h-128v64h128v-64zM768 64h-64v128h64v-128zM960 64h-64v128h64v-128zM576 192h-128v64h128v-64zM576 0h-128v64h128v-64zM256 320h-128v64h128v-64zM256 512h-128v64h128v-64zM320 384h-64v128h64v-128zM448 64h-64v128h64v-128zM128 384
h-64v128h64v-128zM640 64h-64v128h64v-128zM512 448v-64h-64v-64h-64v-64h-64v-64h-64v-64h-64v64h64v64h64v64h64v64h64v64h64zM512 448v64h64v-64h-64zM192 128v-64h-64v64h64z" />
    <glyph glyph-name="guilsinglleft" unicode="&#x2039;" 
d="M256 128v64h-64v64h-64v64h64v64h64v64h128v-64h-64v-64h-64v-64h64v-64h64v-64h-128z" />
    <glyph glyph-name="guilsinglright" unicode="&#x203a;" 
d="M128 128v64h64v64h64v64h-64v64h-64v64h128v-64h64v-64h64v-64h-64v-64h-64v-64h-128z" />
    <glyph glyph-name="Euro" unicode="&#x20ac;" 
d="M320 192h-128v-128h128v128zM320 384v128h-128v-128h128zM320 192h128v-128h-64v-64h-256v64h-64v128h-64v64h64v64h-64v64h64v128h64v64h256v-64h64v-128h-128v-64h-128v-64h128v-64z" />
    <glyph glyph-name="trademark" unicode="&#x2122;" horiz-adv-x="640" 
d="M64 512h-64v64h192v-64h-64v-192h-64v192zM320 512h64v-64h-64v-128h-64v256h64v-64zM512 512v64h64v-256h-64v128h-64v64h64zM384 384v64h64v-64h-64z" />
    <glyph glyph-name="uni2661" unicode="&#x2661;" horiz-adv-x="640" 
d="M320 64h64v-64h-64v64zM320 64h-64v64h64v-64zM256 128h-64v64h64v-64zM192 192h-64v64h64v-64zM128 256h-64v256h64v-256zM384 64v64h64v-64h-64zM448 128v64h64v-64h-64zM512 192v64h64v-64h-64zM576 256v256h-128v-64h-64v-64h-64v64h-64v64h-128v64h128v-64h64v-64
h64v64h64v64h128v-64h64v-256h-64z" />
    <glyph glyph-name="heart" unicode="&#x2665;" horiz-adv-x="640" 
d="M384 448v64h64v64h128v-64h64v-256h-64v-64h-64v-64h-64v-64h-64v-64h-64v64h-64v64h-64v64h-64v64h-64v256h64v64h128v-64h64v-64h64z" />
    <glyph glyph-name="uni2764" unicode="&#x2764;" horiz-adv-x="640" 
d="M384 448v64h64v64h128v-64h64v-256h-64v-64h-64v-64h-64v-64h-64v-64h-64v64h-64v64h-64v64h-64v64h-64v256h64v64h128v-64h64v-64h64z" />
    <glyph glyph-name="uni2765" unicode="&#x2765;" horiz-adv-x="640" 
d="M192 320h-64v64h-64v128h64v64h256v-64h64v-64h64v-64h64v-64h64v-64h-64v-64h-64v-64h-64v-64h-64v-64h-256v64h-64v128h64v64h64v64z" />
    <glyph glyph-name="u1F494" unicode="&#x1f494;" horiz-adv-x="896" 
d="M320 0h-64v64h-64v64h-64v64h-64v256h64v64h128v-64h64v-64h64v-64h-64v-64h64v-64h-64v-192zM704 192v-64h-64v-64h-64v-64h-64v192h64v64h-64v64h64v64h-64v64h64v64h128v-64h64v-256h-64z" />
  </font>
</defs>
</svg>
